<mxfile host="Electron" agent="Mozilla/5.0 (Windows NT 10.0; Win64; x64) AppleWebKit/537.36 (KHTML, like Gecko) draw.io/25.0.2 Chrome/128.0.6613.186 Electron/32.2.5 Safari/537.36" version="25.0.2">
  <diagram name="Page-1" id="cOoTUgxrvTyqKmf62JIT">
    <mxGraphModel dx="989" dy="582" grid="1" gridSize="10" guides="1" tooltips="1" connect="1" arrows="1" fold="1" page="1" pageScale="1" pageWidth="827" pageHeight="1169" math="0" shadow="0">
      <root>
        <mxCell id="0" />
        <mxCell id="1" parent="0" />
        <mxCell id="j80dt58U2OvoHxpxFiV9-4" value="" style="edgeStyle=orthogonalEdgeStyle;rounded=0;orthogonalLoop=1;jettySize=auto;html=1;" edge="1" parent="1" source="j80dt58U2OvoHxpxFiV9-1" target="j80dt58U2OvoHxpxFiV9-3">
          <mxGeometry relative="1" as="geometry" />
        </mxCell>
        <mxCell id="j80dt58U2OvoHxpxFiV9-7" style="edgeStyle=orthogonalEdgeStyle;rounded=0;orthogonalLoop=1;jettySize=auto;html=1;entryX=0;entryY=0.5;entryDx=0;entryDy=0;" edge="1" parent="1" source="j80dt58U2OvoHxpxFiV9-1" target="j80dt58U2OvoHxpxFiV9-5">
          <mxGeometry relative="1" as="geometry" />
        </mxCell>
        <mxCell id="j80dt58U2OvoHxpxFiV9-8" style="edgeStyle=orthogonalEdgeStyle;rounded=0;orthogonalLoop=1;jettySize=auto;html=1;entryX=0;entryY=0.5;entryDx=0;entryDy=0;" edge="1" parent="1" source="j80dt58U2OvoHxpxFiV9-1" target="j80dt58U2OvoHxpxFiV9-6">
          <mxGeometry relative="1" as="geometry" />
        </mxCell>
        <mxCell id="j80dt58U2OvoHxpxFiV9-15" style="edgeStyle=orthogonalEdgeStyle;rounded=0;orthogonalLoop=1;jettySize=auto;html=1;entryX=0;entryY=0.5;entryDx=0;entryDy=0;" edge="1" parent="1" source="j80dt58U2OvoHxpxFiV9-1" target="j80dt58U2OvoHxpxFiV9-12">
          <mxGeometry relative="1" as="geometry">
            <Array as="points">
              <mxPoint x="160" y="50" />
              <mxPoint x="160" y="90" />
              <mxPoint x="320" y="90" />
              <mxPoint x="320" y="130" />
            </Array>
          </mxGeometry>
        </mxCell>
        <mxCell id="j80dt58U2OvoHxpxFiV9-17" style="edgeStyle=orthogonalEdgeStyle;rounded=0;orthogonalLoop=1;jettySize=auto;html=1;" edge="1" parent="1" source="j80dt58U2OvoHxpxFiV9-1" target="j80dt58U2OvoHxpxFiV9-11">
          <mxGeometry relative="1" as="geometry">
            <Array as="points">
              <mxPoint x="160" y="50" />
              <mxPoint x="160" y="90" />
              <mxPoint x="320" y="90" />
              <mxPoint x="320" y="50" />
            </Array>
          </mxGeometry>
        </mxCell>
        <mxCell id="j80dt58U2OvoHxpxFiV9-21" style="edgeStyle=orthogonalEdgeStyle;rounded=0;orthogonalLoop=1;jettySize=auto;html=1;entryX=0;entryY=0.5;entryDx=0;entryDy=0;" edge="1" parent="1" source="j80dt58U2OvoHxpxFiV9-1" target="j80dt58U2OvoHxpxFiV9-20">
          <mxGeometry relative="1" as="geometry" />
        </mxCell>
        <mxCell id="j80dt58U2OvoHxpxFiV9-24" style="edgeStyle=orthogonalEdgeStyle;rounded=0;orthogonalLoop=1;jettySize=auto;html=1;entryX=0;entryY=0.5;entryDx=0;entryDy=0;" edge="1" parent="1" source="j80dt58U2OvoHxpxFiV9-1" target="j80dt58U2OvoHxpxFiV9-22">
          <mxGeometry relative="1" as="geometry" />
        </mxCell>
        <mxCell id="j80dt58U2OvoHxpxFiV9-25" style="edgeStyle=orthogonalEdgeStyle;rounded=0;orthogonalLoop=1;jettySize=auto;html=1;entryX=0;entryY=0.5;entryDx=0;entryDy=0;" edge="1" parent="1" source="j80dt58U2OvoHxpxFiV9-1" target="j80dt58U2OvoHxpxFiV9-23">
          <mxGeometry relative="1" as="geometry" />
        </mxCell>
        <mxCell id="j80dt58U2OvoHxpxFiV9-1" value="uiElement" style="rounded=0;whiteSpace=wrap;html=1;" vertex="1" parent="1">
          <mxGeometry x="20" y="20" width="120" height="60" as="geometry" />
        </mxCell>
        <mxCell id="j80dt58U2OvoHxpxFiV9-2" value="&lt;div&gt;Variables:&lt;/div&gt;font&lt;div&gt;text&lt;/div&gt;&lt;div&gt;colour&lt;/div&gt;&lt;div&gt;scale&lt;/div&gt;&lt;div&gt;xPos&lt;/div&gt;&lt;div&gt;yPos&lt;/div&gt;&lt;div&gt;active&lt;/div&gt;&lt;div&gt;sprite&lt;/div&gt;&lt;div&gt;animationPtr&lt;/div&gt;&lt;div&gt;layer&lt;/div&gt;" style="shape=note;whiteSpace=wrap;html=1;backgroundOutline=1;darkOpacity=0.05;" vertex="1" parent="1">
          <mxGeometry x="20" y="100" width="120" height="170" as="geometry" />
        </mxCell>
        <mxCell id="j80dt58U2OvoHxpxFiV9-18" style="edgeStyle=orthogonalEdgeStyle;rounded=0;orthogonalLoop=1;jettySize=auto;html=1;entryX=0;entryY=0.5;entryDx=0;entryDy=0;" edge="1" parent="1" source="j80dt58U2OvoHxpxFiV9-3" target="j80dt58U2OvoHxpxFiV9-11">
          <mxGeometry relative="1" as="geometry" />
        </mxCell>
        <mxCell id="j80dt58U2OvoHxpxFiV9-3" value="init" style="whiteSpace=wrap;html=1;rounded=1;" vertex="1" parent="1">
          <mxGeometry x="180" y="20" width="120" height="60" as="geometry" />
        </mxCell>
        <mxCell id="j80dt58U2OvoHxpxFiV9-5" value="activate" style="whiteSpace=wrap;html=1;rounded=1;" vertex="1" parent="1">
          <mxGeometry x="180" y="120" width="120" height="60" as="geometry" />
        </mxCell>
        <mxCell id="j80dt58U2OvoHxpxFiV9-6" value="deactivate" style="whiteSpace=wrap;html=1;rounded=1;" vertex="1" parent="1">
          <mxGeometry x="180" y="200" width="120" height="60" as="geometry" />
        </mxCell>
        <mxCell id="j80dt58U2OvoHxpxFiV9-9" style="edgeStyle=orthogonalEdgeStyle;rounded=0;orthogonalLoop=1;jettySize=auto;html=1;entryX=0.5;entryY=0;entryDx=0;entryDy=0;entryPerimeter=0;" edge="1" parent="1" source="j80dt58U2OvoHxpxFiV9-1" target="j80dt58U2OvoHxpxFiV9-2">
          <mxGeometry relative="1" as="geometry" />
        </mxCell>
        <mxCell id="j80dt58U2OvoHxpxFiV9-11" value="setText" style="whiteSpace=wrap;html=1;rounded=1;" vertex="1" parent="1">
          <mxGeometry x="340" y="20" width="120" height="60" as="geometry" />
        </mxCell>
        <mxCell id="j80dt58U2OvoHxpxFiV9-12" value="setColour" style="whiteSpace=wrap;html=1;rounded=1;" vertex="1" parent="1">
          <mxGeometry x="340" y="100" width="120" height="60" as="geometry" />
        </mxCell>
        <mxCell id="j80dt58U2OvoHxpxFiV9-20" value="animation::iterateLifetimeAndReturnFrame" style="rounded=1;whiteSpace=wrap;html=1;glass=1;" vertex="1" parent="1">
          <mxGeometry x="180" y="280" width="240" height="60" as="geometry" />
        </mxCell>
        <mxCell id="j80dt58U2OvoHxpxFiV9-22" value="animation::play" style="rounded=1;whiteSpace=wrap;html=1;glass=1;" vertex="1" parent="1">
          <mxGeometry x="180" y="360" width="120" height="60" as="geometry" />
        </mxCell>
        <mxCell id="j80dt58U2OvoHxpxFiV9-23" value="animation::reset" style="rounded=1;whiteSpace=wrap;html=1;glass=1;" vertex="1" parent="1">
          <mxGeometry x="180" y="440" width="120" height="60" as="geometry" />
        </mxCell>
      </root>
    </mxGraphModel>
  </diagram>
</mxfile>
